<svg width="204" height="126" viewBox="0 0 204 126" fill="none" xmlns="http://www.w3.org/2000/svg">
<circle cx="4.5" cy="121.5" r="4.5" fill="#D9D9D9"/>
<circle cx="43.5" cy="121.5" r="4.5" fill="#D9D9D9"/>
<circle cx="82.5" cy="121.5" r="4.5" fill="#D9D9D9"/>
<circle cx="121.5" cy="121.5" r="4.5" fill="#D9D9D9"/>
<circle cx="160.5" cy="121.5" r="4.5" fill="#D9D9D9"/>
<circle cx="199.5" cy="121.5" r="4.5" fill="#D9D9D9"/>
<circle cx="4.5" cy="82.5" r="4.5" fill="#D9D9D9"/>
<circle cx="43.5" cy="82.5" r="4.5" fill="#D9D9D9"/>
<circle cx="82.5" cy="82.5" r="4.5" fill="#D9D9D9"/>
<circle cx="121.5" cy="82.5" r="4.5" fill="#D9D9D9"/>
<circle cx="160.5" cy="82.5" r="4.5" fill="#D9D9D9"/>
<circle cx="199.5" cy="82.5" r="4.5" fill="#D9D9D9"/>
<circle cx="4.5" cy="43.5" r="4.5" fill="#D9D9D9"/>
<circle cx="43.5" cy="43.5" r="4.5" fill="#D9D9D9"/>
<circle cx="82.5" cy="43.5" r="4.5" fill="#D9D9D9"/>
<circle cx="121.5" cy="43.5" r="4.5" fill="#D9D9D9"/>
<circle cx="160.5" cy="43.5" r="4.5" fill="#D9D9D9"/>
<circle cx="199.5" cy="43.5" r="4.5" fill="#D9D9D9"/>
<circle cx="4.5" cy="4.5" r="4.5" fill="#D9D9D9"/>
<circle cx="43.5" cy="4.5" r="4.5" fill="#D9D9D9"/>
<circle cx="82.5" cy="4.5" r="4.5" fill="#D9D9D9"/>
<circle cx="121.5" cy="4.5" r="4.5" fill="#D9D9D9"/>
<circle cx="160.5" cy="4.5" r="4.5" fill="#D9D9D9"/>
<circle cx="199.5" cy="4.5" r="4.5" fill="#D9D9D9"/>
</svg>
