<svg width="66" height="48" viewBox="0 0 66 48" fill="none" xmlns="http://www.w3.org/2000/svg">
<path d="M9.8364 11.5701L0.426392 37.0001L14.1364 22.0501L65.5464 23.5001L9.8364 11.5701Z" fill="#002C44"/>
<path d="M0.716385 0C0.716385 0 11.1564 9.01 9.73639 11.87L65.0564 23.21C65.0464 23.21 38.4364 4.55 0.716385 0Z" fill="#FF7B3A"/>
<path d="M0.00639441 37.49C-0.423606 38.3 20.9764 35.31 20.9764 35.31L13.6364 21.75C13.6364 21.75 3.79639 30.4 0.00639441 37.49Z" fill="#FBC949"/>
<path d="M13.6364 21.75C13.6364 21.75 23.6964 38.21 18.0664 47.77L65.9364 23.42C65.9364 23.42 18.7264 20.78 13.6364 21.75Z" fill="#F75E28"/>
</svg>
