<svg width="216" height="124" viewBox="0 0 216 124" fill="none" xmlns="http://www.w3.org/2000/svg">
<path d="M207.831 19.6683C201.681 21.5083 195.521 23.3483 189.371 25.1883C188.501 25.4483 188.871 26.8183 189.751 26.5483C195.901 24.7083 202.061 22.8683 208.211 21.0283C209.071 20.7783 208.701 19.4083 207.831 19.6683Z" fill="#00477C"/>
<path d="M189.201 25.0283C174.591 20.0683 159.971 15.1083 145.361 10.1483C144.581 9.8883 144.151 11.0283 144.821 11.4383C156.501 18.5583 168.171 25.6883 179.851 32.8083C180.631 33.2883 181.341 32.0583 180.561 31.5883C168.881 24.4683 157.211 17.3383 145.531 10.2183C145.351 10.6483 145.171 11.0783 144.991 11.5083C159.601 16.4683 174.221 21.4283 188.831 26.3883C189.691 26.6883 190.061 25.3183 189.201 25.0283Z" fill="#00477C"/>
<path d="M208.701 17.7083C182.921 12.3783 157.041 7.53829 131.081 3.18829C130.191 3.03829 129.811 4.39828 130.701 4.54828C156.661 8.89828 182.541 13.7383 208.321 19.0683C209.221 19.2483 209.601 17.8883 208.701 17.7083Z" fill="#00477C"/>
<path d="M180.291 32.1183C173.161 32.5783 166.051 33.2683 158.961 34.1883C158.071 34.3083 158.061 35.7183 158.961 35.5983C166.051 34.6783 173.151 33.9883 180.291 33.5283C181.191 33.4683 181.201 32.0583 180.291 32.1183Z" fill="#00477C"/>
<path d="M128.821 4.6583C138.941 16.0483 149.651 26.8583 160.961 37.0783C161.631 37.6883 162.641 36.6883 161.961 36.0783C150.651 25.8683 139.941 15.0583 129.821 3.6583C129.221 2.9783 128.221 3.9783 128.821 4.6583Z" fill="#00477C"/>
<path d="M190.341 27.0583C190.361 33.6283 190.731 40.1683 191.481 46.6983C191.581 47.5883 193.001 47.5983 192.891 46.6983C192.151 40.1683 191.771 33.6283 191.751 27.0583C191.751 26.1483 190.341 26.1483 190.341 27.0583Z" fill="#00477C"/>
<path d="M180.501 32.5583C183.961 37.5083 187.411 42.4683 190.871 47.4183C191.391 48.1583 192.611 47.4583 192.091 46.7083C188.631 41.7583 185.181 36.7983 181.721 31.8483C181.211 31.1083 179.981 31.8083 180.501 32.5583Z" fill="#00477C"/>
<path d="M191.561 46.5383C185.331 41.7183 178.921 37.1583 172.321 32.8683C171.551 32.3683 170.851 33.5983 171.611 34.0883C178.111 38.3183 184.431 42.7983 190.571 47.5383C191.281 48.0883 192.281 47.0983 191.561 46.5383Z" fill="#00477C"/>
<path d="M1.0414 123.128C-0.838602 107.018 6.56137 90.7785 17.9514 79.2385C29.3414 67.6985 44.3514 60.3585 59.7114 55.1785C65.2714 53.3085 70.9714 51.6585 76.0314 48.6785C85.4114 43.1585 91.7014 33.4985 95.6914 23.3785C98.7014 15.7385 99.3514 4.82848 91.8514 1.48848C86.6114 -0.841524 80.1614 2.63848 77.6214 7.77848C75.0914 12.9185 75.6614 19.0685 77.2314 24.5785C81.6314 40.0285 93.2614 52.6985 106.921 61.1385C120.591 69.5785 136.241 74.2285 151.901 77.8285C162.461 80.2585 173.281 82.2685 184.071 81.3185C194.861 80.3685 205.741 76.1485 212.771 67.8985C214.141 66.2885 215.421 64.2885 215.031 62.2085C214.721 60.5285 213.411 59.2485 212.161 58.0885C207.631 53.8585 203.091 49.6185 198.561 45.3885" stroke="#00477C" stroke-width="1.5" stroke-miterlimit="10" stroke-linecap="round" stroke-dasharray="9.74 9.74"/>
<path d="M159.021 15.3183C160.081 17.3383 161.131 19.3483 162.191 21.3683C162.611 22.1783 163.831 21.4583 163.411 20.6583C162.351 18.6383 161.301 16.6283 160.241 14.6083C159.821 13.7983 158.601 14.5183 159.021 15.3183Z" fill="#00477C"/>
<path d="M164.381 15.7986C165.831 19.1186 167.281 22.4286 168.731 25.7486C169.091 26.5786 170.311 25.8586 169.951 25.0386C168.501 21.7186 167.051 18.4086 165.601 15.0886C165.241 14.2486 164.021 14.9686 164.381 15.7986Z" fill="#00477C"/>
<path d="M172.661 20.6286C174.031 23.6186 175.391 26.6186 176.761 29.6086C177.141 30.4386 178.361 29.7186 177.981 28.8986C176.611 25.9086 175.251 22.9086 173.881 19.9186C173.501 19.0886 172.281 19.8086 172.661 20.6286Z" fill="#00477C"/>
<path d="M179.111 23.1385C180.601 27.6285 182.201 32.0785 183.901 36.4885C184.221 37.3285 185.591 36.9685 185.261 36.1085C183.561 31.6985 181.961 27.2485 180.471 22.7585C180.191 21.8985 178.821 22.2685 179.111 23.1385Z" fill="#00477C"/>
<path d="M184.361 26.7985C185.741 30.9985 187.111 35.1986 188.491 39.3986C188.771 40.2586 190.141 39.8886 189.851 39.0186C188.471 34.8186 187.101 30.6186 185.721 26.4186C185.441 25.5686 184.071 25.9385 184.361 26.7985Z" fill="#00477C"/>
<path d="M189.251 27.2685C189.881 29.4285 190.291 31.6185 190.461 33.8685C190.531 34.7685 191.941 34.7785 191.871 33.8685C191.691 31.4985 191.271 29.1785 190.611 26.8985C190.361 26.0285 188.991 26.3985 189.251 27.2685Z" fill="#00477C"/>
</svg>
